<svg xmlns="http://www.w3.org/2000/svg" viewBox="0 9.470000267028809 110.41999816894531 36.37999725341797" data-asc="0.9052734375"><g fill="#fc9e4f"><g fill="#fc9e4f" transform="translate(0, 0)"><path d="M0 45.26L13.75 9.47L18.85 9.47L33.50 45.26L28.10 45.26L23.93 34.42L8.96 34.42L5.03 45.26L0 45.26M10.33 30.57L22.46 30.57L18.73 20.65Q17.02 16.14 16.19 13.23Q15.50 16.67 14.26 20.07L10.33 30.57ZM34.96 37.52L39.31 36.84Q39.67 39.45 41.35 40.84Q43.02 42.24 46.02 42.24Q49.05 42.24 50.51 41.00Q51.98 39.77 51.98 38.11Q51.98 36.62 50.68 35.77Q49.78 35.18 46.19 34.28Q41.36 33.06 39.49 32.17Q37.62 31.27 36.66 29.70Q35.69 28.13 35.69 26.22Q35.69 24.49 36.49 23.01Q37.28 21.53 38.65 20.56Q39.67 19.80 41.44 19.27Q43.21 18.75 45.24 18.75Q48.29 18.75 50.60 19.63Q52.91 20.51 54.00 22.01Q55.10 23.51 55.52 26.03L51.22 26.61Q50.93 24.61 49.52 23.49Q48.12 22.36 45.56 22.36Q42.53 22.36 41.24 23.36Q39.94 24.37 39.94 25.71Q39.94 26.56 40.48 27.25Q41.02 27.95 42.16 28.42Q42.82 28.66 46.04 29.54Q50.71 30.79 52.55 31.58Q54.39 32.37 55.44 33.89Q56.49 35.40 56.49 37.65Q56.49 39.84 55.21 41.78Q53.93 43.73 51.51 44.79Q49.10 45.85 46.04 45.85Q40.99 45.85 38.34 43.75Q35.69 41.65 34.96 37.52ZM78.64 42.07Q76.20 44.14 73.94 45.00Q71.68 45.85 69.09 45.85Q64.82 45.85 62.52 43.76Q60.23 41.67 60.23 38.43Q60.23 36.52 61.10 34.95Q61.96 33.37 63.37 32.42Q64.77 31.47 66.53 30.98Q67.82 30.64 70.43 30.32Q75.76 29.69 78.27 28.81Q78.30 27.91 78.30 27.66Q78.30 24.98 77.05 23.88Q75.37 22.39 72.05 22.39Q68.95 22.39 67.47 23.47Q65.99 24.56 65.28 27.32L60.99 26.73Q61.57 23.97 62.92 22.28Q64.26 20.58 66.80 19.67Q69.34 18.75 72.68 18.75Q76.00 18.75 78.08 19.53Q80.15 20.31 81.13 21.50Q82.10 22.68 82.50 24.49Q82.71 25.61 82.71 28.54L82.71 34.40Q82.71 40.53 83.00 42.15Q83.28 43.77 84.11 45.26L79.52 45.26Q78.83 43.90 78.64 42.07M78.27 32.25Q75.88 33.23 71.09 33.91Q68.38 34.30 67.26 34.79Q66.14 35.28 65.53 36.22Q64.92 37.16 64.92 38.31Q64.92 40.06 66.25 41.24Q67.58 42.41 70.14 42.41Q72.68 42.41 74.66 41.30Q76.64 40.19 77.56 38.26Q78.27 36.77 78.27 33.86L78.27 32.25ZM106.35 45.26L106.35 41.99Q103.88 45.85 99.10 45.85Q96.00 45.85 93.40 44.14Q90.80 42.43 89.37 39.37Q87.94 36.30 87.94 32.32Q87.94 28.44 89.23 25.28Q90.53 22.12 93.12 20.43Q95.70 18.75 98.90 18.75Q101.25 18.75 103.08 19.74Q104.91 20.73 106.05 22.31L106.05 9.47L110.42 9.47L110.42 45.26L106.35 45.26M92.46 32.32Q92.46 37.30 94.56 39.77Q96.66 42.24 99.51 42.24Q102.39 42.24 104.41 39.88Q106.42 37.52 106.42 32.69Q106.42 27.37 104.37 24.88Q102.32 22.39 99.32 22.39Q96.39 22.39 94.42 24.78Q92.46 27.17 92.46 32.32Z"/></g></g></svg>